<svg width="19" height="19" viewBox="0 0 19 19" fill="none" xmlns="http://www.w3.org/2000/svg">
<path d="M6.76527 13.8911C7.12089 13.7697 7.51383 13.8053 7.84351 13.9871C8.17271 14.1685 8.41615 14.4834 8.51013 14.8518C8.57931 15.1234 8.65635 15.411 8.74003 15.7053C9.11666 17.0294 8.40362 18.4107 7.11665 18.8499C6.84004 18.9498 6.54944 19.0008 6.26731 19C5.27539 18.9999 4.334 18.4015 3.93212 17.4287C3.81928 17.1555 3.69714 16.857 3.56769 16.5405C3.4237 16.1884 3.42965 15.7871 3.58475 15.4399C3.73988 15.0929 4.03259 14.8241 4.38791 14.7028L6.76527 13.8911Z" fill="#ADADAD"/>
<path d="M11.1545 11.3234C11.4841 11.1417 11.8772 11.1072 12.2328 11.2284L14.6111 12.0401C14.9664 12.1615 15.2592 12.4302 15.4143 12.7772C15.5694 13.1244 15.5754 13.5258 15.4314 13.8778C15.3018 14.1944 15.1798 14.4928 15.0669 14.7661C14.6652 15.7387 13.7234 16.3371 12.7317 16.3373C12.4493 16.3381 12.1582 16.2873 11.8814 16.1872C10.5947 15.748 9.8816 14.3666 10.258 13.0427C10.3417 12.7482 10.4198 12.4605 10.4889 12.1891C10.5829 11.8207 10.8253 11.5048 11.1545 11.3234Z" fill="#ADADAD"/>
<path d="M2.44126 2.4083C3.24419 2.13427 4.07632 2.23183 4.84672 2.69111C6.06128 3.41527 6.96398 4.93935 7.32246 6.87196C7.55052 8.10177 7.54795 8.97521 7.54634 9.81948C7.54568 10.1591 7.54506 10.5104 7.55939 10.8843C7.58275 11.4941 7.20304 12.0558 6.63576 12.2494L3.43517 13.3418C3.29224 13.3906 3.14662 13.4133 3.00347 13.4133C2.46069 13.4133 1.95118 13.0802 1.7415 12.5393C1.19458 11.1278 0.773701 9.97696 0.490582 9.1191C-0.0521155 7.47449 -0.146684 5.97607 0.217508 4.78613C0.574243 3.62062 1.36406 2.77602 2.44126 2.4083Z" fill="#ADADAD"/>
<path d="M14.1533 0.434779C14.9236 -0.0244014 15.7549 -0.121911 16.5578 0.151971C17.6352 0.519676 18.4257 1.36419 18.7825 2.5298C19.1466 3.7197 19.0522 5.2183 18.5095 6.86277C18.2262 7.72105 17.8052 8.872 17.2585 10.283C17.0489 10.8237 16.5393 11.1569 15.9966 11.1569C15.8534 11.1569 15.7078 11.1342 15.5649 11.0855L12.3633 9.99304C11.7962 9.79932 11.4163 9.23766 11.4397 8.62802C11.454 8.25382 11.4534 7.90195 11.4527 7.56213C11.4511 6.71806 11.4495 5.84515 11.6776 4.61563C12.0361 2.68296 12.9388 1.15896 14.1533 0.434779Z" fill="#ADADAD"/>
</svg>
