<svg width="19" height="19" viewBox="0 0 19 19" fill="none" xmlns="http://www.w3.org/2000/svg">
<g clip-path="url(#clip0_1082_73)">
<path d="M14.7182 7.21135C14.667 7.14715 14.6049 7.15977 14.5723 7.17287C14.5451 7.18393 14.4826 7.21926 14.4912 7.3078C14.5016 7.41412 14.5074 7.52252 14.5085 7.63002C14.5132 8.076 14.3343 8.51293 14.0177 8.82877C13.7032 9.14256 13.2895 9.31163 12.849 9.30673C12.2473 9.29905 11.7483 8.98522 11.4058 8.39915C11.1226 7.91454 11.2471 7.28951 11.3789 6.62773C11.456 6.24039 11.5357 5.83983 11.5357 5.4586C11.5357 2.49026 9.54019 0.777738 8.35069 0.0211152C8.32609 0.00549219 8.30267 0 8.28193 0C8.24819 0 8.22147 0.0145469 8.2083 0.0234531C8.18277 0.0407461 8.14191 0.0801562 8.15505 0.149922C8.60971 2.56433 7.25359 4.01646 5.81783 5.55383C4.3379 7.13851 2.66052 8.93464 2.66052 12.174C2.66052 15.9379 5.72268 19.0001 9.48661 19.0001C12.5857 19.0001 15.3181 16.8394 16.1312 13.7458C16.6857 11.6364 16.1047 8.94933 14.7182 7.21135ZM9.6569 17.543C8.7144 17.586 7.81806 17.248 7.13343 16.5934C6.45614 15.9458 6.06768 15.042 6.06768 14.1137C6.06768 12.3717 6.73372 11.093 8.52514 9.39528C8.55446 9.36748 8.58448 9.35869 8.61064 9.35869C8.63435 9.35869 8.65491 9.36592 8.66905 9.37271C8.69885 9.38708 8.74783 9.42263 8.74123 9.49952C8.67718 10.2449 8.67829 10.8635 8.74449 11.3384C8.91371 12.5513 9.80163 13.3662 10.9541 13.3662C11.5191 13.3662 12.0573 13.1536 12.4695 12.7675C12.5174 12.7227 12.5708 12.7284 12.5913 12.7327C12.6184 12.7386 12.6547 12.7552 12.6738 12.8011C12.8447 13.2138 12.9321 13.6519 12.9334 14.1031C12.9389 15.9187 11.469 17.4619 9.6569 17.543Z" fill="#ADADAD"/>
</g>
<defs>
<clipPath id="clip0_1082_73">
<rect width="19" height="19" fill="white"/>
</clipPath>
</defs>
</svg>
