<svg width="19" height="19" viewBox="0 0 19 19" fill="none" xmlns="http://www.w3.org/2000/svg">
<path d="M8.74817 12.8915L3.89954 18.2479C3.4678 18.7355 2.85086 18.9998 2.23157 18.9998C0.97102 18.9998 -0.0380031 17.9554 0.00109932 16.7C0.0202478 16.0885 0.294035 15.5049 0.752076 15.0995L6.24426 10.1258L8.74817 12.8915Z" fill="#ADADAD"/>
<path d="M3.52161 0.162935C3.73892 -0.0543817 4.09131 -0.0542417 4.30872 0.162935L6.93274 2.78696C7.66626 3.52048 7.90378 4.56478 7.64563 5.49985C7.90747 5.7369 17.6851 14.5897 18.2482 15.0995C18.7062 15.5049 18.98 16.0885 18.9991 16.7C19.0392 17.9844 17.9843 19.0393 16.7003 18.9989C16.0888 18.9798 15.5052 18.706 15.0997 18.2479C9.50701 12.0709 21.0942 24.8686 5.50012 7.64536C4.53678 7.91134 3.50232 7.64755 2.78723 6.93247C0.270901 4.41606 2.60744 6.75267 0.163209 4.30844C-0.0540054 4.09104 -0.0541205 3.73863 0.163209 3.52133C0.380551 3.3042 0.733008 3.30421 0.950318 3.52133L2.44641 5.01743L3.33801 4.12485L1.8429 2.62973C1.62552 2.41235 1.62553 2.05997 1.8429 1.84262C2.06032 1.62527 2.41266 1.6252 2.63001 1.84262L4.12512 3.33774L5.0177 2.44614L3.52161 0.950044C3.3045 0.732711 3.3045 0.380232 3.52161 0.162935Z" fill="#ADADAD"/>
<path d="M14.6671 1.25083C15.958 0.821656 16.9454 0.899164 17.5216 1.47544C18.0977 2.05163 18.1752 3.03829 17.7462 4.32895C17.4283 5.28507 16.8515 6.29108 16.3107 6.83188C15.5501 7.59244 14.4898 7.84067 13.5323 7.60532L12.6759 8.55258L10.3282 6.42758L11.3917 5.46469C11.1509 4.48571 11.4198 3.43164 12.1652 2.68637C12.7059 2.14563 13.7111 1.56874 14.6671 1.25083Z" fill="#ADADAD"/>
</svg>
