<svg width="19" height="19" viewBox="0 0 19 19" fill="none" xmlns="http://www.w3.org/2000/svg">
<path d="M7.79297 0C8.93223 0 10.0678 0 11.207 0C11.5076 0.0928097 11.6449 0.304416 11.7006 0.605119C11.7711 0.99492 11.8713 1.3773 11.9492 1.76338C11.9715 1.86733 12.0123 1.92673 12.1125 1.95643C12.4131 2.05295 12.7025 2.17546 12.9846 2.31653C13.0773 2.36479 13.1479 2.36108 13.2369 2.30168C13.582 2.07151 13.9309 1.85248 14.2797 1.62974C14.6248 1.407 14.8697 1.43298 15.1555 1.71884C15.8643 2.42419 16.573 3.13326 17.2781 3.84232C17.5676 4.13189 17.5898 4.37319 17.3709 4.71845C17.1445 5.07112 16.9182 5.42751 16.6881 5.77648C16.6361 5.85444 16.6324 5.91383 16.6732 5.99551C16.818 6.28136 16.9441 6.57835 17.0406 6.88277C17.074 6.983 17.1297 7.02755 17.2336 7.04982C17.627 7.12779 18.0166 7.22802 18.41 7.30227C18.7031 7.35795 18.9072 7.50274 19 7.7923C19 8.93201 19 10.068 19 11.2077C18.9109 11.4973 18.7068 11.642 18.41 11.6977C18.0166 11.772 17.627 11.8685 17.2336 11.9502C17.1297 11.9725 17.0703 12.017 17.0406 12.1172C16.9441 12.4216 16.818 12.7186 16.6732 13.0045C16.6324 13.0862 16.6398 13.1456 16.6881 13.2235C16.9182 13.5725 17.1445 13.9289 17.3709 14.2816C17.5898 14.6268 17.5676 14.8718 17.2781 15.1577C16.5693 15.8667 15.8643 16.5758 15.1518 17.2812C14.8623 17.5707 14.6211 17.593 14.276 17.3703C13.9271 17.1475 13.5783 16.9248 13.2332 16.6983C13.1441 16.6389 13.0736 16.6352 12.9809 16.6835C12.6988 16.8245 12.4094 16.9471 12.1088 17.0436C12.0086 17.077 11.9641 17.1364 11.9455 17.2366C11.8676 17.6227 11.7674 18.0088 11.6969 18.3949C11.6412 18.6956 11.5039 18.9072 11.2033 19C10.0641 19 8.92852 19 7.78926 19C7.48867 18.9072 7.35137 18.6956 7.2957 18.3949C7.2252 18.0051 7.125 17.6227 7.04707 17.2366C7.0248 17.1327 6.98398 17.0733 6.88379 17.0436C6.57949 16.9471 6.28262 16.8208 5.99688 16.676C5.91523 16.6352 5.85586 16.6389 5.77793 16.6909C5.4291 16.9211 5.07285 17.1475 4.72031 17.374C4.37148 17.5967 4.13398 17.5707 3.84453 17.2849C3.13574 16.5795 2.42695 15.8705 1.72188 15.1614C1.43242 14.8718 1.41016 14.6305 1.6291 14.2853C1.85547 13.9326 2.08184 13.5762 2.31191 13.2272C2.36387 13.1493 2.36758 13.0899 2.32676 13.0082C2.18203 12.7224 2.05586 12.4254 1.95937 12.1209C1.92598 12.0207 1.87031 11.9762 1.76641 11.9539C1.37305 11.8759 0.983398 11.7757 0.590039 11.7014C0.293164 11.6458 0.0890625 11.501 0 11.2114C0 10.0717 0 8.93572 0 7.79601C0.0890625 7.50645 0.293164 7.36167 0.590039 7.30598C0.983398 7.23173 1.37305 7.13521 1.76641 7.05354C1.87031 7.03126 1.92969 6.98671 1.95937 6.88648C2.05586 6.58206 2.18203 6.28507 2.32676 5.99922C2.36758 5.91755 2.36016 5.85815 2.31191 5.78019C2.08184 5.43122 1.85547 5.07483 1.6291 4.72216C1.40645 4.37691 1.43242 4.1356 1.72188 3.84603C2.42695 3.13697 3.13574 2.4279 3.84453 1.71884C4.13398 1.43298 4.3752 1.407 4.72031 1.62974C5.07285 1.85619 5.4291 2.08265 5.77793 2.31282C5.85586 2.36479 5.91523 2.3685 5.99688 2.32767C6.29004 2.17917 6.59063 2.05295 6.90234 1.95272C6.99141 1.92302 7.02852 1.87104 7.04707 1.78195C7.12871 1.38472 7.22891 0.987495 7.30313 0.586557C7.35879 0.293279 7.50352 0.0890973 7.79297 0ZM9.5 6.09574C7.6334 6.09574 6.10449 7.62153 6.09336 9.49629C6.08223 11.3636 7.62969 12.9154 9.5 12.9154C11.3703 12.9154 12.9215 11.3636 12.9066 9.49629C12.8955 7.62153 11.3666 6.09574 9.5 6.09574Z" fill="#ADADAD"/>
</svg>
