<svg width="19" height="19" viewBox="0 0 19 19" fill="none" xmlns="http://www.w3.org/2000/svg">
<g clip-path="url(#clip0_1082_77)">
<path fill-rule="evenodd" clip-rule="evenodd" d="M11.6794 0.472656C11.9933 0.472832 12.2476 0.727894 12.2476 1.04176V2.00073H13.4171C14.4638 2.00077 15.3124 2.84942 15.3125 3.89612V9.47554C15.3057 9.48239 15.2969 9.48734 15.29 9.49415L14.0558 10.7333L9.59204 15.1911C9.30407 15.4804 9.0988 15.8456 8.99453 16.2617L8.66148 17.6635C8.58949 17.9552 8.61067 18.2508 8.69969 18.5274H2.55116C1.50435 18.5274 0.655762 17.6788 0.655762 16.632V3.89612C0.65585 2.84939 1.5044 2.00073 2.55116 2.00073H3.72366V1.04176C3.72366 0.727877 3.97793 0.472804 4.29179 0.472656C4.60577 0.472656 4.8609 0.727786 4.8609 1.04176V2.00073H7.41748V1.04176C7.41748 0.727786 7.67261 0.472656 7.98659 0.472656C8.30054 0.472687 8.55472 0.727805 8.55472 1.04176V2.00073H11.1103V1.04176C11.1103 0.727786 11.3654 0.472656 11.6794 0.472656ZM4.29179 11.2867C3.97793 11.2868 3.72366 11.5419 3.72366 11.8558C3.72372 12.1696 3.97797 12.4238 4.29179 12.4239H7.98561C8.29955 12.4239 8.55465 12.1697 8.55472 11.8558C8.55472 11.5418 8.29959 11.2867 7.98561 11.2867H4.29179ZM4.29179 8.61649C3.97793 8.61664 3.72366 8.87171 3.72366 9.1856C3.72383 9.49935 3.97804 9.75358 4.29179 9.75373H11.6784C11.9923 9.75373 12.2464 9.49944 12.2466 9.1856C12.2466 8.87162 11.9924 8.61649 11.6784 8.61649H4.29179ZM4.29179 5.94531C3.97793 5.94545 3.72366 6.20053 3.72366 6.51442C3.72375 6.82823 3.97799 7.0824 4.29179 7.08254H11.6784C11.9924 7.08254 12.2465 6.82832 12.2466 6.51442C12.2466 6.20044 11.9924 5.94531 11.6784 5.94531H4.29179Z" fill="#ADADAD"/>
<path d="M16.3626 13.762L12.2603 17.8643C12.115 18.0095 11.932 18.111 11.7362 18.1552L10.3277 18.4902C9.98653 18.5723 9.68329 18.2686 9.76542 17.9338L10.1004 16.5252C10.151 16.3231 10.2519 16.1396 10.3972 15.9943L14.4985 11.8979L16.3626 13.762Z" fill="#ADADAD"/>
<path d="M16.0952 10.2954C16.6069 9.7837 17.4412 9.78371 17.9592 10.2954C18.4709 10.8134 18.4709 11.6473 17.9592 12.1653L17.1668 12.9578L15.3017 11.0928L16.0952 10.2954Z" fill="#ADADAD"/>
</g>
<defs>
<clipPath id="clip0_1082_77">
<rect width="19" height="19" fill="white"/>
</clipPath>
</defs>
</svg>
